<svg width="100" height="100" viewBox="0 0 100 100" xmlns="http://www.w3.org/2000/svg">
  <!-- Background -->
  <rect width="100" height="100" fill="#F5F5F5"/>
  
  <!-- Bamboo Utensils -->
  <!-- Fork -->
  <rect x="20" y="30" width="3" height="40" fill="#8BC34A" stroke="#689F38" stroke-width="1"/>
  <rect x="18" y="25" width="7" height="8" fill="#8BC34A" stroke="#689F38" stroke-width="1"/>
  <line x1="19" y1="27" x2="19" y2="31" stroke="#689F38" stroke-width="1"/>
  <line x1="21" y1="27" x2="21" y2="31" stroke="#689F38" stroke-width="1"/>
  <line x1="23" y1="27" x2="23" y2="31" stroke="#689F38" stroke-width="1"/>
  <line x1="25" y1="27" x2="25" y2="31" stroke="#689F38" stroke-width="1"/>
  
  <!-- Spoon -->
  <rect x="35" y="30" width="3" height="40" fill="#8BC34A" stroke="#689F38" stroke-width="1"/>
  <ellipse cx="36.5" cy="25" rx="6" ry="4" fill="#8BC34A" stroke="#689F38" stroke-width="1"/>
  
  <!-- Knife -->
  <rect x="50" y="30" width="3" height="40" fill="#8BC34A" stroke="#689F38" stroke-width="1"/>
  <polygon points="51.5,25 48,20 55,20" fill="#8BC34A" stroke="#689F38" stroke-width="1"/>
  
  <!-- Chopsticks -->
  <rect x="65" y="30" width="2" height="40" fill="#8BC34A" stroke="#689F38" stroke-width="1"/>
  <rect x="68" y="30" width="2" height="40" fill="#8BC34A" stroke="#689F38" stroke-width="1"/>
  
  <!-- Bamboo texture lines -->
  <line x1="21.5" y1="35" x2="21.5" y2="65" stroke="#689F38" stroke-width="0.5"/>
  <line x1="36.5" y1="35" x2="36.5" y2="65" stroke="#689F38" stroke-width="0.5"/>
  <line x1="51.5" y1="35" x2="51.5" y2="65" stroke="#689F38" stroke-width="0.5"/>
  <line x1="66" y1="35" x2="66" y2="65" stroke="#689F38" stroke-width="0.5"/>
  <line x1="69" y1="35" x2="69" y2="65" stroke="#689F38" stroke-width="0.5"/>
</svg> 