<svg width="100" height="100" viewBox="0 0 100 100" xmlns="http://www.w3.org/2000/svg">
  <!-- Background -->
  <rect width="100" height="100" fill="#FFF3E0"/>
  
  <!-- File/Document -->
  <rect x="25" y="15" width="50" height="70" fill="#FFCC80" stroke="#F57C00" stroke-width="2" rx="3"/>
  
  <!-- File Fold -->
  <polygon points="25,15 35,25 75,25 75,15" fill="#FFB74D" stroke="#F57C00" stroke-width="2"/>
  
  <!-- Document Lines -->
  <rect x="35" y="35" width="30" height="2" fill="#F57C00" rx="1"/>
  <rect x="35" y="42" width="25" height="2" fill="#F57C00" rx="1"/>
  <rect x="35" y="49" width="30" height="2" fill="#F57C00" rx="1"/>
  <rect x="35" y="56" width="20" height="2" fill="#F57C00" rx="1"/>
  <rect x="35" y="63" width="28" height="2" fill="#F57C00" rx="1"/>
  <rect x="35" y="70" width="22" height="2" fill="#F57C00" rx="1"/>
  
  <!-- File Icon -->
  <rect x="40" y="30" width="20" height="25" fill="#FF9800" stroke="#F57C00" stroke-width="1" rx="2"/>
  <line x1="45" y1="35" x2="55" y2="35" stroke="#F57C00" stroke-width="1"/>
  <line x1="45" y1="40" x2="55" y2="40" stroke="#F57C00" stroke-width="1"/>
  <line x1="45" y1="45" x2="55" y2="45" stroke="#F57C00" stroke-width="1"/>
  <line x1="45" y1="50" x2="50" y2="50" stroke="#F57C00" stroke-width="1"/>
</svg>