<svg width="100" height="100" viewBox="0 0 100 100" xmlns="http://www.w3.org/2000/svg">
  <!-- Background -->
  <rect width="100" height="100" fill="#E8F5E8"/>
  
  <!-- Globe -->
  <circle cx="50" cy="50" r="35" fill="#4CAF50" stroke="#2E7D32" stroke-width="2"/>
  
  <!-- Continents -->
  <!-- North America -->
  <path d="M25 30 Q30 25 35 30 Q40 35 35 40 Q30 45 25 40 Q20 35 25 30" fill="#8BC34A"/>
  
  <!-- South America -->
  <path d="M30 45 Q32 50 30 60 Q28 70 30 75 Q32 70 30 60 Q28 50 30 45" fill="#8BC34A"/>
  
  <!-- Europe -->
  <path d="M45 25 Q50 20 55 25 Q60 30 55 35 Q50 40 45 35 Q40 30 45 25" fill="#8BC34A"/>
  
  <!-- Africa -->
  <path d="M45 35 Q50 30 55 35 Q60 45 55 55 Q50 65 45 55 Q40 45 45 35" fill="#8BC34A"/>
  
  <!-- Asia -->
  <path d="M55 25 Q70 20 75 30 Q80 40 75 50 Q70 60 55 55 Q50 45 55 25" fill="#8BC34A"/>
  
  <!-- Australia -->
  <path d="M65 60 Q70 65 75 60 Q80 65 75 70 Q70 75 65 70 Q60 65 65 60" fill="#8BC34A"/>
  
  <!-- Grid lines -->
  <path d="M15 50 L85 50" stroke="#2E7D32" stroke-width="1" opacity="0.5"/>
  <path d="M50 15 L50 85" stroke="#2E7D32" stroke-width="1" opacity="0.5"/>
  <ellipse cx="50" cy="50" rx="35" ry="10" fill="none" stroke="#2E7D32" stroke-width="1" opacity="0.3"/>
  <ellipse cx="50" cy="50" rx="10" ry="35" fill="none" stroke="#2E7D32" stroke-width="1" opacity="0.3"/>
</svg>