<svg width="24" height="24" viewBox="0 0 100 100" xmlns="http://www.w3.org/2000/svg">
  <!-- Oceans (dark blue) -->
  <circle cx="50" cy="50" r="35" fill="#0B2D5C"/>
  <!-- Continents (green) --><g fill="#43B049">
    <!-- Rough world silhouette - simplified for small size -->
    <path d="M32 30c3-2 7-3 11-3 4 0 8 1 12 3 2 2 3 3 3 4s-2 2-4 2-3 1-3 3 2 3 4 4 3 2 2 4-3 2-5 3-4 2-4 4 2 3 2 5-2 4-4 4-4-2-6-4-4-3-6-4-5-3-6-5 0-4 2-5 4-3 5-5 2-4 3-5z"/>
    <path d="M61 28c4 1 8 3 11 6 3 2 5 5 5 8s-3 4-5 5-4 2-5 3-2 3-1 5 3 4 3 5 0 3-2 4-4 0-6-1-3-3-3-4 1-3 2-5 2-4 1-6-3-4-4-5 0-3 2-4 2-2 2-3-1-2-0-3z"/>
  </g>
</svg>